<?xml version="1.0" standalone="no"?>
<!DOCTYPE svg PUBLIC "-//W3C//DTD SVG 20010904//EN"
 "http://www.w3.org/TR/2001/REC-SVG-20010904/DTD/svg10.dtd">
<svg version="1.0" xmlns="http://www.w3.org/2000/svg"
 width="80.000000pt" height="80.000000pt" viewBox="0 0 80.000000 80.000000"
 preserveAspectRatio="xMidYMid meet">

<g transform="translate(0.000000,80.000000) scale(0.100000,-0.100000)"
fill="#000000" stroke="none">
<path d="M290 784 c-237 -64 -356 -335 -245 -560 42 -86 102 -144 193 -187 61
-29 76 -32 162 -32 86 0 101 3 162 32 93 44 151 100 196 191 35 72 37 81 37
172 0 91 -2 100 -38 172 -88 179 -274 264 -467 212z m252 -76 c71 -33 127 -89
164 -164 25 -51 29 -70 29 -144 0 -73 -4 -93 -28 -141 -40 -83 -49 -88 -90
-47 -59 60 -120 82 -217 83 -97 0 -153 -21 -217 -81 -43 -40 -50 -37 -89 42
-88 181 10 406 205 469 68 22 174 14 243 -17z m-54 -463 c33 -10 67 -30 93
-55 50 -47 46 -55 -40 -97 -48 -24 -68 -28 -141 -28 -73 0 -93 4 -141 28 -88
43 -92 52 -40 98 72 64 169 83 269 54z"/>
<path d="M338 582 c-33 -20 -58 -68 -58 -111 0 -22 11 -43 34 -69 31 -33 39
-37 85 -37 43 0 55 5 82 31 59 60 46 154 -27 189 -42 20 -82 19 -116 -3z m117
-47 c16 -15 25 -36 25 -55 0 -19 -9 -40 -25 -55 -15 -16 -36 -25 -55 -25 -19
0 -40 9 -55 25 -16 15 -25 36 -25 55 0 19 9 40 25 55 15 16 36 25 55 25 19 0
40 -9 55 -25z"/>
</g>
</svg>
