<?xml version="1.0" standalone="no"?>
<!DOCTYPE svg PUBLIC "-//W3C//DTD SVG 20010904//EN"
 "http://www.w3.org/TR/2001/REC-SVG-20010904/DTD/svg10.dtd">
<svg version="1.0" xmlns="http://www.w3.org/2000/svg"
 width="56.000000pt" height="56.000000pt" viewBox="0 0 56.000000 56.000000"
 preserveAspectRatio="xMidYMid meet">

<g transform="translate(0.000000,56.000000) scale(0.100000,-0.100000)"
fill="#000000" stroke="none">
<path d="M168 516 c-147 -40 -210 -175 -133 -286 27 -39 27 -41 13 -79 l-15
-38 56 17 c40 12 65 14 86 8 17 -5 58 -7 92 -4 261 22 292 317 41 383 -62 16
-79 16 -140 -1z m160 -38 c70 -21 122 -87 122 -156 0 -105 -133 -183 -261
-154 -33 8 -57 8 -75 2 -24 -10 -26 -9 -21 12 4 15 -3 31 -23 55 -50 57 -52
125 -4 183 60 71 153 91 262 58z"/>
<path d="M137 383 c-19 -18 2 -23 103 -23 91 0 110 3 110 15 0 12 -18 15 -103
15 -57 0 -107 -3 -110 -7z"/>
<path d="M130 295 c0 -12 16 -15 80 -15 64 0 80 3 80 15 0 12 -16 15 -80 15
-64 0 -80 -3 -80 -15z"/>
<path d="M502 245 c-25 -68 -143 -145 -224 -145 -37 0 -35 -16 5 -37 29 -16
70 -18 170 -11 12 1 34 -2 48 -6 24 -7 25 -6 21 23 -3 21 3 39 17 57 12 15 21
40 21 56 0 31 -27 98 -39 98 -4 0 -13 -16 -19 -35z"/>
</g>
</svg>
