<?xml version="1.0" standalone="no"?>
<!DOCTYPE svg PUBLIC "-//W3C//DTD SVG 20010904//EN"
 "http://www.w3.org/TR/2001/REC-SVG-20010904/DTD/svg10.dtd">
<svg version="1.0" xmlns="http://www.w3.org/2000/svg"
 width="512.000000pt" height="512.000000pt" viewBox="0 0 512.000000 512.000000"
 preserveAspectRatio="xMidYMid meet">

<g transform="translate(0.000000,512.000000) scale(0.100000,-0.100000)"
fill="#000000" stroke="none">
<path d="M875 5104 c-444 -79 -787 -427 -860 -871 -14 -88 -16 -268 -13 -1718
l3 -1620 27 -100 c37 -133 120 -300 203 -403 72 -90 131 -140 145 -126 4 5
362 522 795 1149 432 627 806 1166 830 1197 62 81 164 161 270 213 138 67 194
80 370 80 143 -1 154 -2 245 -33 176 -61 205 -83 520 -403 214 -216 296 -294
330 -309 96 -42 224 -16 297 61 17 19 268 329 558 689 l526 655 -4 330 c-3
319 -4 333 -30 430 -108 407 -437 709 -851 780 -129 22 -3237 21 -3361 -1z
m477 -975 c211 -45 351 -249 309 -451 -27 -129 -101 -226 -219 -281 -61 -29
-76 -32 -162 -32 -86 0 -101 3 -162 32 -335 159 -284 639 77 729 65 16 92 16
157 3z"/>
<path d="M4815 2301 c-165 -206 -334 -410 -375 -454 -168 -178 -353 -259 -595
-259 -134 1 -226 20 -337 70 -135 61 -157 80 -603 540 -138 142 -185 168 -287
159 -67 -6 -150 -47 -183 -92 -13 -16 -368 -529 -789 -1140 l-766 -1110 52 -8
c29 -4 781 -6 1672 -5 l1621 3 100 27 c136 37 300 120 405 205 167 136 299
342 358 558 l27 100 3 765 c1 421 1 821 0 891 l-3 125 -300 -375z"/>
</g>
</svg>
