<svg xmlns="http://www.w3.org/2000/svg" width="512" height="512" viewBox="0 0 512 512">
<g>
<path d="M 465.99 511.13 C456.42,507.98 452.28,503.13 444.01,485.32 C434.59,465.01 433.05,460.95 433.02,456.27 C433.00,451.49 435.29,444.95 438.56,440.50 L 440.76 437.50 L 416.90 379.00 C403.77,346.83 391.85,317.69 390.40,314.25 L 387.77 308.00 L 383.14 308.02 L 378.50 308.04 L 364.28 340.77 C356.47,358.77 349.94,374.14 349.78,374.91 C349.60,375.80 351.00,376.77 353.56,377.54 C372.69,383.29 386.79,398.98 390.02,418.10 C394.06,442.09 379.83,465.68 356.17,474.20 C351.80,475.78 347.15,476.36 335.90,476.74 L 321.30 477.24 L 316.40 487.25 C308.43,503.52 299.98,509.83 287.53,508.79 C273.58,507.64 262.56,494.53 264.38,481.26 L 264.96 477.00 L 207.19 477.00 C143.57,477.00 143.60,477.00 131.01,470.73 C123.28,466.88 113.97,457.85 110.34,450.68 C104.81,439.78 104.63,438.75 104.05,415.00 L 103.50 392.50 L 91.50 391.87 C74.59,390.99 64.96,388.39 51.26,381.00 C28.22,368.57 12.35,348.29 5.19,322.12 L 2.55 312.50 L 2.21 206.50 C1.99,135.43 2.23,96.79 2.96,89.24 C5.23,65.59 14.41,46.34 31.22,29.94 C42.19,19.24 53.98,12.49 70.86,7.24 C79.47,4.57 79.63,4.56 111.50,4.53 C141.85,4.50 143.93,4.62 151.93,6.80 C173.60,12.73 192.89,26.03 204.74,43.24 C212.28,54.19 214.91,59.84 219.31,74.50 C221.38,81.39 221.42,83.18 221.78,192.50 C222.18,310.70 222.10,313.24 217.37,327.76 C209.04,353.40 189.84,374.39 165.17,384.87 C153.80,389.70 147.54,391.05 133.70,391.70 L 120.89 392.29 L 121.20 413.90 C121.48,433.96 121.66,435.83 123.75,440.08 C127.42,447.51 132.50,452.63 139.77,456.21 L 146.46 459.50 L 209.70 459.78 L 272.95 460.06 L 277.96 450.09 C280.71,444.60 284.32,438.57 285.97,436.68 C289.52,432.64 297.21,429.08 303.12,428.74 L 307.34 428.50 L 315.10 411.00 C319.38,401.38 322.90,393.16 322.94,392.75 C322.97,392.34 319.51,392.00 315.25,392.00 C301.23,392.00 289.09,387.04 279.43,377.38 C252.57,350.52 262.95,307.14 299.50,293.49 C303.90,291.84 308.30,291.57 336.10,291.24 L 367.70 290.85 L 370.97 283.42 C372.78,279.30 374.00,275.11 373.71,273.99 C373.42,272.89 368.80,261.26 363.43,248.14 L 353.69 224.30 L 330.09 223.68 C311.00,223.18 305.36,222.70 300.50,221.18 C284.66,216.19 272.04,203.92 267.16,188.77 C264.18,179.52 263.74,175.10 264.95,166.36 C267.26,149.61 277.61,135.15 292.42,127.98 C296.89,125.82 303.01,123.67 306.02,123.22 C309.99,122.61 311.42,121.98 311.20,120.94 C311.03,120.15 300.80,94.70 288.47,64.39 C276.13,34.07 265.78,8.60 265.47,7.78 C265.04,6.67 266.88,5.48 272.62,3.14 C276.86,1.42 280.42,0.11 280.53,0.25 C280.64,0.39 291.88,27.84 305.51,61.25 L 330.29 122.00 L 386.01 122.00 L 441.73 122.00 L 455.85 89.78 C465.57,67.61 469.65,57.25 468.94,56.53 C468.27,55.87 452.61,55.32 425.20,55.00 L 382.50 54.50 L 382.21 46.25 L 381.92 38.00 L 423.71 38.01 C457.12,38.02 466.60,38.32 470.98,39.48 C473.99,40.28 476.77,40.62 477.16,40.22 C477.54,39.82 481.30,31.62 485.50,22.00 C489.70,12.38 493.53,4.10 494.01,3.61 C494.91,2.69 507.63,7.59 508.65,9.24 C508.96,9.74 505.28,19.10 500.48,30.04 L 491.75 49.93 L 496.38 55.08 C514.03,74.71 512.96,104.88 493.92,123.92 C484.38,133.46 471.36,138.99 458.36,139.01 L 452.50 139.02 L 448.80 147.76 C446.77,152.57 440.36,167.26 434.55,180.41 C428.75,193.56 424.00,204.92 424.00,205.66 C424.00,206.74 428.18,207.00 445.39,207.00 C464.00,207.00 467.64,207.26 473.29,209.01 C489.78,214.10 502.94,228.15 507.45,245.46 C514.27,271.65 497.66,299.07 470.69,306.15 C464.61,307.74 459.66,308.00 434.90,308.00 L 406.17 308.00 L 416.45 333.25 C422.11,347.14 433.38,374.81 441.50,394.75 L 456.26 431.00 L 459.45 431.00 C464.84,431.00 471.74,433.97 475.81,438.05 C480.77,443.01 496.82,476.72 497.68,483.98 C498.88,494.07 493.22,504.30 483.77,509.12 C479.30,511.40 470.02,512.44 465.99,511.13 ZM 476.34 493.89 C478.86,492.74 481.00,489.20 481.00,486.18 C481.00,483.60 465.22,450.70 463.29,449.25 C458.64,445.77 450.00,449.81 450.00,455.46 C450.00,459.21 464.54,490.10 467.55,492.75 C470.39,495.25 472.70,495.55 476.34,493.89 ZM 294.97 490.03 C296.72,488.28 302.00,478.89 302.00,477.53 C302.00,477.24 297.76,477.00 292.58,477.00 L 283.16 477.00 L 282.01 480.48 C281.37,482.40 281.15,484.89 281.51,486.02 C283.29,491.64 291.04,493.96 294.97,490.03 ZM 312.43 455.73 C313.21,452.59 313.03,451.52 311.37,449.29 C306.38,442.61 300.18,444.33 295.18,453.79 L 291.85 460.07 L 301.68 459.79 L 311.50 459.50 L 312.43 455.73 ZM 354.06 456.82 C361.00,453.62 367.60,447.02 370.88,440.00 C372.95,435.56 373.45,432.96 373.47,426.48 C373.50,419.40 373.11,417.67 370.21,411.78 C366.27,403.77 360.01,397.90 352.36,395.03 C341.65,391.03 342.60,390.13 332.09,414.24 C323.07,434.92 322.87,435.54 324.47,437.99 C328.06,443.49 329.38,447.70 329.44,453.87 L 329.50 460.24 L 339.06 459.78 C346.46,459.43 349.84,458.76 354.06,456.82 ZM 126.52 371.77 C133.49,365.53 144.85,351.82 151.76,341.28 C166.71,318.52 176.74,290.26 178.64,265.56 L 179.30 256.91 L 170.90 257.21 L 162.50 257.50 L 161.78 265.00 C159.75,286.25 152.00,308.81 139.86,328.77 C130.89,343.53 112.39,363.42 100.01,371.61 C97.80,373.07 96.00,374.62 96.00,375.05 C96.00,375.49 101.80,375.88 108.88,375.93 L 121.77 376.02 L 126.52 371.77 ZM 331.10 373.81 C332.03,372.08 357.47,314.63 359.72,309.19 C360.16,308.12 355.25,307.94 333.38,308.19 C306.74,308.50 306.45,308.52 301.00,311.12 C278.68,321.77 274.53,352.01 293.29,367.38 C300.83,373.56 307.97,375.62 322.71,375.88 C329.19,375.99 330.05,375.77 331.10,373.81 ZM 156.72 370.11 C177.84,361.79 194.53,343.52 202.06,320.50 C204.18,314.03 204.38,311.35 204.77,285.19 L 205.19 256.88 L 200.84 257.19 L 196.50 257.50 L 195.79 264.50 C193.19,290.01 187.63,309.72 176.99,331.22 C171.79,341.72 159.85,360.19 153.38,367.75 C149.31,372.50 149.79,372.84 156.72,370.11 ZM 87.00 360.18 C97.93,352.98 114.93,335.99 122.21,325.00 C135.28,305.26 143.71,281.97 145.21,261.50 L 145.50 257.50 L 137.28 257.21 C127.90,256.88 129.02,255.62 127.07,268.70 C123.95,289.63 112.16,313.28 96.57,329.90 C86.00,341.18 71.06,351.52 56.74,357.49 L 49.99 360.31 L 53.74 362.86 C55.81,364.26 59.97,366.62 63.00,368.09 L 68.50 370.76 L 73.50 368.27 C76.25,366.90 82.32,363.26 87.00,360.18 ZM 44.19 344.38 C59.85,338.75 72.09,330.81 83.50,318.87 C98.98,302.67 108.32,283.39 111.43,261.25 L 112.02 257.00 L 103.56 257.00 L 95.09 257.00 L 94.45 260.75 C88.98,292.59 68.19,317.79 38.81,328.19 C34.43,329.73 29.99,331.00 28.93,331.00 C26.43,331.00 26.49,332.43 29.19,336.88 C31.64,340.92 36.06,347.00 36.56,347.00 C36.74,347.00 40.17,345.82 44.19,344.38 ZM 35.77 311.27 C57.04,302.80 73.20,282.96 77.36,260.21 L 77.97 256.92 L 69.30 257.21 L 60.63 257.50 L 59.46 262.00 C55.06,278.96 41.22,292.79 24.00,297.44 L 19.50 298.66 L 19.82 305.08 C20.30,314.99 20.46,315.26 25.34,314.45 C27.63,314.07 32.32,312.64 35.77,311.27 ZM 473.23 287.21 C480.49,283.63 485.13,278.97 489.04,271.32 C492.43,264.68 492.58,250.86 489.33,243.82 C486.43,237.52 479.64,230.36 473.73,227.36 C467.29,224.10 460.44,223.45 435.97,223.77 L 415.44 224.04 L 404.14 249.86 L 392.84 275.67 L 396.08 283.38 L 399.32 291.10 L 432.93 290.80 L 466.55 290.50 L 473.23 287.21 ZM 24.71 279.48 C32.65,276.16 40.69,267.25 42.55,259.72 L 43.23 256.93 L 31.37 257.22 L 19.50 257.50 L 19.22 269.25 C19.03,277.06 19.29,281.00 20.00,281.00 C20.59,281.00 22.70,280.32 24.71,279.48 ZM 396.18 225.12 C396.44,224.01 394.19,223.74 384.50,223.76 C377.90,223.76 372.50,224.16 372.50,224.64 C372.50,225.67 380.70,246.27 382.76,250.40 L 384.21 253.30 L 390.03 239.90 C393.23,232.53 396.00,225.88 396.18,225.12 ZM 205.00 198.00 L 205.00 156.00 L 112.00 156.00 L 19.00 156.00 L 19.00 198.00 L 19.00 240.00 L 112.00 240.00 L 205.00 240.00 L 205.00 198.00 ZM 346.00 206.13 C346.00,205.39 331.71,169.98 321.83,146.25 C318.86,139.12 318.75,139.00 315.16,139.01 C310.14,139.03 301.75,141.38 297.65,143.91 C293.56,146.44 286.74,153.67 284.70,157.64 C283.89,159.21 282.68,163.14 282.02,166.37 C278.25,184.67 290.91,202.81 309.65,205.95 C316.27,207.06 346.00,207.21 346.00,206.13 ZM 404.68 205.75 C405.50,204.45 434.00,139.90 434.00,139.33 C434.00,139.15 412.40,139.00 386.00,139.00 C355.10,139.00 338.00,139.35 338.00,139.99 C338.00,140.75 352.06,175.82 363.56,203.75 L 364.90 207.00 L 384.39 207.00 C398.89,207.00 404.09,206.68 404.68,205.75 ZM 28.44 132.25 C29.45,120.98 33.71,99.99 37.03,89.97 C44.24,68.19 56.77,45.54 70.43,29.58 C75.44,23.72 75.46,23.67 72.50,24.38 C67.68,25.55 54.39,32.65 48.72,37.08 C36.69,46.51 26.36,61.90 21.94,77.00 C19.99,83.66 19.70,87.54 19.26,111.75 L 18.77 139.00 L 23.31 139.00 L 27.84 139.00 L 28.44 132.25 ZM 62.00 136.10 C62.00,130.22 65.98,110.23 68.96,101.12 C78.67,71.44 97.72,44.66 122.31,26.13 L 129.12 21.00 L 115.28 21.00 L 101.45 21.00 L 94.39 28.25 C65.92,57.49 49.12,93.06 45.48,131.75 L 44.80 139.00 L 53.40 139.00 L 62.00 139.00 L 62.00 136.10 ZM 96.37 132.75 C98.00,116.87 105.82,96.50 116.41,80.59 C123.17,70.44 138.23,55.76 149.31,48.54 C156.97,43.54 159.92,42.03 170.96,37.38 L 174.42 35.93 L 170.18 33.12 C167.85,31.58 163.72,29.27 160.99,28.00 L 156.04 25.68 L 151.77 27.59 C149.42,28.64 143.68,32.01 139.00,35.08 C106.48,56.43 83.13,94.45 79.42,132.10 L 78.74 139.00 L 87.23 139.00 L 95.72 139.00 L 96.37 132.75 ZM 130.36 133.57 C131.80,121.35 139.58,104.66 149.31,92.92 C159.14,81.06 175.82,70.46 191.26,66.26 L 198.03 64.42 L 194.45 58.46 C189.09,49.52 188.86,49.36 183.37,50.82 C157.63,57.71 130.83,82.22 120.03,108.77 C116.68,116.98 113.00,131.10 113.00,135.69 L 113.00 139.00 L 121.36 139.00 L 129.72 139.00 L 130.36 133.57 ZM 164.94 134.31 C168.24,121.20 178.18,108.95 190.57,102.72 C194.45,100.76 199.35,98.84 201.44,98.44 L 205.25 97.73 L 204.57 90.12 C204.19,85.93 203.52,82.14 203.09,81.70 C201.99,80.58 193.72,82.74 186.15,86.13 C177.20,90.13 167.81,97.11 161.99,104.10 C154.60,112.99 147.13,129.52 147.02,137.25 C147.00,138.78 148.06,139.00 155.38,139.00 L 163.76 139.00 L 164.94 134.31 ZM 205.00 126.93 C205.00,114.89 205.00,114.87 202.75,115.54 C193.89,118.18 184.34,127.74 181.56,136.75 C180.87,139.00 180.88,139.00 192.93,139.00 L 205.00 139.00 L 205.00 126.93 ZM 473.71 117.88 C484.29,112.83 490.91,103.00 491.76,91.07 C492.32,83.26 490.36,75.23 486.68,70.24 L 484.27 66.98 L 478.47 80.24 C475.28,87.53 469.85,99.93 466.39,107.79 L 460.11 122.07 L 463.80 121.46 C465.84,121.12 470.29,119.51 473.71,117.88 Z" fill="rgba(0,0,0,1)"/>
</g>
</svg>