<?xml version="1.0" encoding="utf-8"?>
<svg height="800px" width="800px" version="1.1" id="Layer_1" xmlns="http://www.w3.org/2000/svg" viewBox="0 0 512 512" xmlns:bx="https://boxy-svg.com"><defs><bx:export><bx:file format="svg" path="Sin título.svg"/></bx:export></defs><path style="fill:#FFD21D;" d="M445.084,62.175L314.555,27.688C304.165,49.59,281.854,64.74,256,64.74 c-25.854,0-48.163-15.149-58.555-37.052L66.917,62.175L10.45,434.507l56.467,17.371l50.809-234.014v266.448h276.548V217.865 l50.809,234.014l56.467-17.371L445.084,62.175z"/><path style="fill:#074761;" d="M314.555,27.688C304.165,49.59,281.854,64.74,256,64.74c-25.854,0-48.163-15.149-58.555-37.052 l-47.955,12.67c16.305,42.956,57.838,73.492,106.511,73.492s90.207-30.536,106.511-73.492L314.555,27.688z"/></svg>